<?xml version="1.0" encoding="utf-8"?>
<!-- Generator: Adobe Illustrator 16.0.0, SVG Export Plug-In . SVG Version: 6.00 Build 0)  -->
<!DOCTYPE svg PUBLIC "-//W3C//DTD SVG 1.1//EN" "http://www.w3.org/Graphics/SVG/1.1/DTD/svg11.dtd">
<svg version="1.1" id="Layer_1" xmlns="http://www.w3.org/2000/svg" xmlns:xlink="http://www.w3.org/1999/xlink" x="0px" y="0px"
	 width="60px" height="48.75px" viewBox="0 1.25 60 48.75" enable-background="new 0 1.25 60 48.75" xml:space="preserve">
<g>
	<path fill="#111111" d="M31.919,32.641h-1.642v-0.216c0-0.167-0.134-0.3-0.298-0.3c-0.165,0-0.299,0.133-0.299,0.3v0.216h-1.296
		v-0.216c0-0.167-0.133-0.3-0.297-0.3c-0.165,0-0.298,0.133-0.298,0.3v0.216h-1.296v-0.216c0-0.167-0.133-0.3-0.298-0.3
		s-0.298,0.133-0.298,0.3v0.216h-1.294v-0.216c0-0.163-0.139-0.3-0.302-0.3c-0.164,0-0.297,0.133-0.297,0.3v0.216h-1.295v-0.216
		c0-0.167-0.133-0.3-0.296-0.3c-0.166,0-0.3,0.133-0.3,0.3v0.216h-1.294v-0.216c0-0.167-0.134-0.3-0.298-0.3
		c-0.167,0-0.3,0.133-0.3,0.3v0.216h-1.293v-0.216c0-0.167-0.136-0.3-0.301-0.3s-0.298,0.133-0.298,0.3v0.216h-1.295v-0.216
		c0-0.167-0.134-0.3-0.299-0.3c-0.165,0-0.297,0.133-0.297,0.3v0.216h-1.294v-0.216c0-0.167-0.134-0.3-0.297-0.3
		c-0.166,0-0.3,0.133-0.3,0.3v0.216h-1.292v-0.216c0-0.167-0.135-0.3-0.299-0.3c-0.164,0-0.298,0.133-0.298,0.3v0.216h-1.293v-0.216
		c0-0.167-0.134-0.3-0.299-0.3c-0.165,0-0.298,0.133-0.298,0.3v0.216H9.474v-0.216c0-0.167-0.134-0.3-0.298-0.3
		c-0.165,0-0.299,0.133-0.299,0.3v0.216H7.586v-0.216c0-0.167-0.135-0.3-0.3-0.3s-0.298,0.133-0.298,0.3v0.216H5.695v-0.216
		c0-0.167-0.134-0.3-0.298-0.3s-0.299,0.133-0.299,0.3v0.216H3.805v-0.216c0-0.167-0.134-0.3-0.297-0.3
		c-0.165,0-0.299,0.133-0.299,0.3v0.216H1.915v-0.216c0-0.163-0.137-0.3-0.298-0.3c-0.165,0-0.299,0.133-0.299,0.3v0.216H0.81V2.3
		h31.117v30.34H31.919z M30.678,32.208h0.809V2.732H1.235v29.064c0.11-0.064,0.239-0.104,0.376-0.104
		c0.327,0,0.605,0.217,0.697,0.516h0.496c0.092-0.299,0.37-0.516,0.698-0.516c0.327,0,0.606,0.217,0.698,0.516h0.495
		c0.093-0.299,0.371-0.516,0.699-0.516c0.328,0,0.606,0.217,0.698,0.516h0.495c0.092-0.299,0.37-0.516,0.698-0.516
		c0.328,0,0.606,0.217,0.699,0.516h0.491c0.092-0.299,0.37-0.516,0.698-0.516s0.606,0.217,0.699,0.516h0.495
		c0.093-0.299,0.37-0.516,0.698-0.516c0.329,0,0.607,0.217,0.699,0.516h0.495c0.093-0.299,0.37-0.516,0.699-0.516
		c0.328,0,0.605,0.217,0.698,0.516h0.494c0.092-0.299,0.371-0.516,0.699-0.516c0.327,0,0.605,0.217,0.698,0.516h0.495
		c0.093-0.299,0.37-0.516,0.698-0.516c0.329,0,0.607,0.217,0.699,0.516h0.496c0.091-0.299,0.369-0.516,0.698-0.516
		s0.608,0.217,0.7,0.516h0.487c0.092-0.299,0.37-0.516,0.7-0.516c0.326,0,0.605,0.217,0.698,0.516h0.495
		c0.091-0.299,0.37-0.516,0.698-0.516c0.328,0,0.605,0.217,0.697,0.516h0.496c0.093-0.299,0.371-0.516,0.699-0.516
		c0.328,0,0.608,0.217,0.7,0.516h0.494c0.092-0.299,0.37-0.516,0.7-0.516c0.327,0,0.605,0.217,0.698,0.516h0.495
		c0.093-0.299,0.371-0.516,0.699-0.516c0.328,0,0.605,0.217,0.699,0.516h0.495c0.092-0.299,0.37-0.516,0.7-0.516
		C30.309,31.692,30.585,31.911,30.678,32.208z"/>
	<polygon fill="#ec008c" points="0,32.449 0,1.5 32.719,1.5 32.719,32.318 30.688,32.318 30.688,3.532 2.032,3.532 2.032,32.449
		"/>
	<path fill="#111111" d="M2.315,49.12L0.933,35.283l0.505-0.065l0.021,0.222c0.015,0.155,0.143,0.272,0.297,0.272
		c0.193-0.02,0.313-0.167,0.297-0.332l-0.021-0.214l1.287-0.127l0.021,0.214c0.016,0.15,0.145,0.269,0.294,0.269
		c0.112-0.011,0.185-0.048,0.235-0.11c0.05-0.061,0.073-0.138,0.064-0.215L3.912,34.98l1.291-0.128l0.021,0.215
		c0.015,0.152,0.144,0.269,0.299,0.269c0.107-0.011,0.178-0.047,0.229-0.108c0.05-0.062,0.073-0.14,0.065-0.219l-0.021-0.218
		l1.288-0.132l0.021,0.217c0.015,0.149,0.146,0.27,0.297,0.27c0.196-0.02,0.315-0.163,0.297-0.329l-0.021-0.216l1.29-0.131
		l0.021,0.217c0.016,0.151,0.145,0.271,0.295,0.271c0.195-0.019,0.316-0.164,0.3-0.331l-0.021-0.215l1.287-0.127l0.021,0.215
		c0.015,0.154,0.146,0.271,0.301,0.271c0.19-0.017,0.309-0.164,0.293-0.33l-0.021-0.216l1.288-0.125l0.021,0.216
		c0.015,0.152,0.145,0.268,0.3,0.268c0.192-0.019,0.311-0.163,0.295-0.328l-0.021-0.216l1.287-0.131l0.021,0.217
		c0.016,0.154,0.143,0.271,0.296,0.271c0.194-0.018,0.315-0.165,0.299-0.329l-0.021-0.215l1.289-0.132l0.021,0.218
		c0.015,0.152,0.143,0.27,0.297,0.27c0.107-0.01,0.179-0.048,0.228-0.107c0.052-0.063,0.076-0.141,0.068-0.222l-0.021-0.216
		l1.287-0.125l0.022,0.216c0.016,0.15,0.145,0.268,0.299,0.268c0.193-0.019,0.312-0.163,0.294-0.329l-0.022-0.219l1.29-0.127
		l0.022,0.214c0.014,0.151,0.147,0.271,0.301,0.271c0.188-0.018,0.31-0.166,0.292-0.33l-0.021-0.214l1.288-0.131l0.021,0.216
		c0.015,0.153,0.142,0.269,0.296,0.269c0.11-0.009,0.182-0.047,0.231-0.106c0.052-0.063,0.075-0.14,0.066-0.222l-0.021-0.214
		l1.288-0.129l0.022,0.214c0.015,0.154,0.144,0.271,0.298,0.271c0.108-0.009,0.179-0.047,0.229-0.106
		c0.053-0.063,0.077-0.144,0.068-0.226l-0.021-0.215l1.288-0.125l0.021,0.215c0.015,0.154,0.144,0.271,0.3,0.271
		c0.191-0.021,0.311-0.165,0.294-0.332l-0.021-0.214l1.29-0.127l0.022,0.214c0.014,0.151,0.143,0.269,0.292,0.269
		c0.112-0.01,0.185-0.047,0.234-0.107c0.051-0.063,0.073-0.14,0.065-0.221l-0.021-0.214l1.288-0.131l0.021,0.216
		c0.016,0.154,0.143,0.271,0.297,0.271c0.194-0.019,0.315-0.165,0.298-0.329l-0.021-0.214l1.633-0.164l1.379,13.853l-0.214,0.021
		L2.315,49.12z M1.445,36.073l1.256,12.575l30.104-3.002l-1.294-12.993l-0.807,0.081c-0.063,0.306-0.317,0.549-0.643,0.581
		l-0.074,0.005c-0.302,0-0.564-0.183-0.674-0.448l-0.491,0.051c-0.023,0.116-0.076,0.227-0.153,0.319
		c-0.124,0.151-0.3,0.242-0.493,0.262l-0.073,0.004c-0.302,0-0.562-0.182-0.671-0.446l-0.493,0.05
		c-0.063,0.305-0.316,0.549-0.641,0.584l-0.071,0.002c-0.304,0-0.565-0.183-0.677-0.447l-0.491,0.048
		c-0.023,0.117-0.075,0.229-0.154,0.323c-0.124,0.149-0.299,0.242-0.491,0.261l-0.071,0.003c-0.302,0-0.562-0.182-0.674-0.448
		l-0.491,0.05c-0.022,0.117-0.074,0.228-0.153,0.322c-0.123,0.149-0.298,0.241-0.491,0.26l-0.073,0.004
		c-0.302,0-0.562-0.181-0.673-0.445l-0.492,0.05c-0.063,0.304-0.316,0.548-0.641,0.583l-0.069,0.004
		c-0.306,0-0.568-0.182-0.678-0.447l-0.494,0.049c-0.063,0.305-0.317,0.548-0.641,0.584l-0.071,0.002
		c-0.304,0-0.566-0.182-0.677-0.444l-0.493,0.048c-0.023,0.115-0.075,0.226-0.154,0.319c-0.124,0.149-0.297,0.242-0.491,0.262
		l-0.071,0.003c-0.302,0-0.563-0.182-0.674-0.447l-0.492,0.052c-0.062,0.306-0.317,0.55-0.644,0.583l-0.074,0.002
		c-0.3,0-0.562-0.182-0.672-0.447l-0.493,0.051c-0.063,0.306-0.318,0.548-0.643,0.582l-0.07,0.003c-0.304,0-0.566-0.183-0.677-0.444
		l-0.492,0.048c-0.063,0.306-0.318,0.55-0.643,0.583l-0.069,0.002c-0.304,0-0.566-0.182-0.678-0.446l-0.492,0.049
		c-0.063,0.307-0.318,0.55-0.645,0.582l-0.074,0.002c-0.302,0-0.561-0.181-0.672-0.446l-0.493,0.052
		c-0.063,0.304-0.317,0.548-0.642,0.581l-0.075,0.004c-0.297,0-0.559-0.185-0.671-0.446l-0.492,0.051
		c-0.022,0.114-0.074,0.224-0.15,0.318c-0.124,0.15-0.299,0.243-0.494,0.265l-0.069,0.002c-0.304,0-0.566-0.181-0.677-0.445
		l-0.492,0.05c-0.022,0.113-0.073,0.221-0.148,0.313c-0.124,0.151-0.299,0.246-0.496,0.268L3.64,35.961
		c-0.3,0-0.559-0.182-0.67-0.446l-0.492,0.049c-0.063,0.306-0.318,0.549-0.642,0.585L1.763,36.15
		C1.646,36.143,1.54,36.117,1.445,36.073z"/>
	<polygon fill="#ec008c" points="32.713,32.344 34.149,46.757 1.599,50 0.16,35.568 2.176,35.37 3.415,47.783 31.933,44.939
		30.697,32.542 	"/>
	<polygon fill="#111111" points="25.045,41.021 8.404,42.683 8.206,40.667 24.846,39.005 	"/>
	<rect x="8.117" y="11.071" fill="#1A1A18" width="16.488" height="0.406"/>
	<rect x="8.117" y="13.338" fill="#1A1A18" width="16.488" height="0.406"/>
	<rect x="8.117" y="15.605" fill="#1A1A18" width="16.488" height="0.406"/>
</g>
</svg>
