<?xml version="1.0" encoding="utf-8"?>
<!-- Generator: Adobe Illustrator 16.0.0, SVG Export Plug-In . SVG Version: 6.00 Build 0)  -->
<!DOCTYPE svg PUBLIC "-//W3C//DTD SVG 1.1//EN" "http://www.w3.org/Graphics/SVG/1.1/DTD/svg11.dtd">
<svg version="1.1" id="Layer_1" xmlns="http://www.w3.org/2000/svg" xmlns:xlink="http://www.w3.org/1999/xlink" x="0px" y="0px"
	 width="60px" height="34.396px" viewBox="0 7.729 60 34.396" enable-background="new 0 7.729 60 34.396" xml:space="preserve">
<g>
	<path fill="#111111" d="M48.126,32.656c2.528,0,4.582,2.053,4.582,4.582c0,2.531-2.054,4.584-4.582,4.584
		c-2.53,0-4.582-2.053-4.582-4.584C43.544,34.709,45.596,32.656,48.126,32.656"/>
	<path fill="#111111" d="M39.805,10.061H13.508c-0.411,0-0.832,0.183-1.181,0.476c-0.361,0.306-0.625,0.707-0.704,1.129L7.421,34.43
		c-0.012,0.059-0.017,0.137-0.017,0.229c0,0.2,0.049,0.362,0.139,0.469c0.086,0.106,0.223,0.187,0.394,0.218
		c0.042,0.008,0.11,0.012,0.204,0.012h0.952c0.355-1.522,1.133-2.885,2.202-3.953c0.753-0.752,1.666-1.364,2.688-1.788
		c0.98-0.404,2.044-0.63,3.149-0.63c1.106,0,2.168,0.226,3.15,0.63c1.021,0.424,1.933,1.036,2.686,1.788
		c0.753,0.753,1.366,1.664,1.789,2.689c0.167,0.405,0.305,0.829,0.407,1.266h10.859l4.502-24.365
		c0.011-0.061,0.017-0.138,0.017-0.232c0-0.2-0.05-0.361-0.14-0.468c-0.086-0.107-0.223-0.185-0.395-0.216
		C39.966,10.065,39.896,10.061,39.805,10.061 M13.508,8.178h26.295c1.73,0,2.891,1.417,2.568,3.148l-4.786,25.912H23.503
		c0-1.758-0.714-3.35-1.867-4.502c-1.151-1.154-2.746-1.867-4.504-1.867c-1.76,0-3.352,0.713-4.504,1.867
		c-1.152,1.152-1.865,2.744-1.865,4.502H8.142c-1.731,0-2.887-1.416-2.567-3.148L9.78,11.327
		C10.099,9.595,11.777,8.178,13.508,8.178z"/>
	<path fill="#ec008c" d="M46.602,17.68h5.5c0,0,0.664-0.167,1,0.222c0.334,0.389,0.582,0.972,0.582,0.972l2.5,6.304l-0.192,0.389
		l-10.748-2.805l-0.308-0.695l0.527-3.859c0,0,0.03-0.305,0.499-0.472C46.438,17.568,46.602,17.68,46.602,17.68 M52.384,15.443
		H45.65c-2.414,0-2.146-0.5-2.563,1.741l-3.703,20.054h2.369c0-1.758,0.712-3.35,1.865-4.502c1.152-1.153,2.746-1.866,4.505-1.866
		s3.353,0.713,4.503,1.866c1.152,1.152,1.867,2.744,1.867,4.502h2.369c1.148,0,1.626-0.19,1.986-1.817l0.93-4.18
		c0.104-0.494,0.139-0.988,0.107-1.482c-0.037-0.571-0.104-1.146-0.31-1.717l-4.466-10.169
		C54.122,15.608,54.686,15.443,52.384,15.443z"/>
	<path fill="#111111" d="M17.132,32.656c2.531,0,4.582,2.053,4.582,4.582c0,2.531-2.051,4.584-4.582,4.584
		c-2.531,0-4.583-2.053-4.583-4.584C12.549,34.709,14.601,32.656,17.132,32.656"/>
	<path fill="#ec008c" d="M1.896,13.736h5.047c0.519,0,0.811,0.425,0.645,0.943L7.083,16.29c-0.164,0.52-0.723,0.944-1.243,0.944
		H0.791c-0.519,0-0.81-0.425-0.646-0.944l0.507-1.611C0.817,14.161,1.375,13.736,1.896,13.736"/>
	<path fill="#ec008c" d="M1.896,20.901H5c0.518,0,0.81,0.425,0.645,0.945l-0.506,1.61C4.973,23.975,4.415,24.4,3.895,24.4H0.791
		c-0.519,0-0.81-0.426-0.646-0.944l0.507-1.61C0.817,21.325,1.375,20.901,1.896,20.901"/>
	<path fill="#ec008c" d="M1.896,28.121h1.159c0.521,0,0.81,0.426,0.646,0.945l-0.507,1.611C3.03,31.195,2.471,31.62,1.952,31.62
		H0.791c-0.519,0-0.81-0.427-0.646-0.942l0.507-1.611C0.817,28.547,1.375,28.121,1.896,28.121"/>
</g>
</svg>
