<?xml version="1.0" encoding="utf-8"?>
<!-- Generator: Adobe Illustrator 16.0.0, SVG Export Plug-In . SVG Version: 6.00 Build 0)  -->
<!DOCTYPE svg PUBLIC "-//W3C//DTD SVG 1.1//EN" "http://www.w3.org/Graphics/SVG/1.1/DTD/svg11.dtd">
<svg version="1.1" id="Layer_1" xmlns="http://www.w3.org/2000/svg" xmlns:xlink="http://www.w3.org/1999/xlink" x="0px" y="0px"
	 width="60px" height="50px" viewBox="0 0 60 50" enable-background="new 0 0 60 50" xml:space="preserve">
<g>
	<path fill="#6E6E6E" d="M10.35,0.46h2.178v3.726c0,0-0.229,0.745,0.401,0.975c0.631,0.229,1.662,0.344,2.751,0.916
		c1.089,0.574,2.464,1.777,2.464,1.777s1.375-1.203,2.465-1.777c1.089-0.572,2.12-0.688,2.751-0.916
		c0.63-0.23,0.401-0.975,0.401-0.975V0.46h2.178l0.058,6.477c0,0,0,0.057-0.114,1.432c-0.115,1.375-1.377,3.496-1.949,4.527
		c-0.571,1.032-1.259,2.58-0.399,5.56c0.858,2.98,10.258,18.912,10.772,19.714c0.517,0.803-0.287,1.203-0.287,1.203
		c-8.771,5.936-23.526,5.039-31.75,0c0,0-0.802-0.4-0.286-1.203c0.514-0.802,9.914-16.734,10.774-19.714s0.172-4.527-0.401-5.56
		c-0.572-1.031-1.834-3.152-1.949-4.527c-0.114-1.375-0.114-1.432-0.114-1.432L10.35,0.46z"/>
	<polygon fill="none" stroke="#111111" stroke-width="0.5669" stroke-miterlimit="22.9256" points="14.524,33.99 14.524,43.988 
		22.481,48.582 45.359,48.582 45.359,38.583 36,33.99 	"/>
	<path fill="#111111" d="M45.359,38.938H22.481c-0.063,0-0.123-0.017-0.177-0.047l-7.957-4.594c-0.139-0.08-0.207-0.242-0.165-0.398
		c0.042-0.154,0.182-0.262,0.342-0.262H36c0.055,0,0.107,0.012,0.156,0.035l9.359,4.594c0.146,0.072,0.227,0.237,0.188,0.397
		C45.667,38.822,45.524,38.938,45.359,38.938z M22.576,38.229h21.257l-7.915-3.883H15.847L22.576,38.229z"/>
	<path fill="#ec008c" d="M14.524,33.032H34.25l-8.584-13.35l9.32,3.417c3.775,5.06,7.555,10.112,11.33,15.167V49.54H22.233
		l-8.666-5.003V33.032H14.524z M36,34.947H15.481v8.494l7.247,4.184h21.674V38.9L33.793,24.697l-3.443-1.262l7.4,11.512H36z"/>
	<path fill="#FFFFFF" d="M0.664,23.983l0.046-0.005c0.017,0.168,0.167,0.292,0.334,0.274c0.169-0.017,0.291-0.167,0.274-0.335
		l0.51-0.05c0.016,0.168,0.166,0.29,0.335,0.274c0.167-0.017,0.291-0.167,0.273-0.335l0.51-0.051
		c0.017,0.168,0.167,0.291,0.334,0.273c0.169-0.016,0.292-0.166,0.274-0.333l0.51-0.052c0.017,0.168,0.167,0.291,0.335,0.274
		C4.566,23.9,4.69,23.75,4.673,23.583l0.51-0.051c0.016,0.167,0.165,0.292,0.334,0.274c0.168-0.017,0.291-0.167,0.274-0.334
		l0.51-0.051c0.017,0.168,0.166,0.292,0.334,0.275c0.168-0.018,0.292-0.167,0.274-0.335l0.51-0.051
		c0.018,0.168,0.166,0.291,0.334,0.274c0.169-0.017,0.291-0.167,0.274-0.335l0.511-0.051c0.016,0.168,0.166,0.291,0.333,0.274
		c0.169-0.017,0.292-0.167,0.275-0.334l0.509-0.051c0.017,0.168,0.166,0.291,0.335,0.274c0.169-0.017,0.291-0.167,0.274-0.335
		l0.509-0.05c0.018,0.168,0.167,0.29,0.335,0.274s0.291-0.167,0.273-0.335l0.51-0.051c0.018,0.169,0.168,0.291,0.335,0.274
		c0.168-0.017,0.291-0.167,0.273-0.334l0.51-0.051c0.018,0.167,0.167,0.291,0.336,0.274c0.168-0.017,0.291-0.167,0.274-0.335
		l0.508-0.051c0.018,0.168,0.167,0.291,0.336,0.273c0.168-0.017,0.291-0.166,0.273-0.333l0.511-0.052
		c0.016,0.168,0.165,0.291,0.334,0.274c0.168-0.017,0.291-0.167,0.273-0.335l0.51-0.051c0.017,0.168,0.167,0.292,0.335,0.274
		s0.291-0.167,0.274-0.335l0.51-0.05c0.017,0.167,0.166,0.291,0.334,0.274c0.169-0.017,0.29-0.167,0.274-0.336l0.715-0.071
		l0.028,0.288l0.768,7.689L1.46,31.959L0.664,23.983z"/>
	<path fill="#111111" d="M1.333,32.113l-0.824-8.256l0.328-0.035l0.015,0.142c0.008,0.083,0.079,0.148,0.161,0.148
		c0.108-0.01,0.174-0.091,0.166-0.181L1.163,23.79l0.792-0.077l0.014,0.141c0.008,0.084,0.079,0.147,0.164,0.147
		c0.059-0.005,0.099-0.027,0.126-0.061s0.04-0.076,0.035-0.119l-0.015-0.142l0.793-0.08l0.015,0.141
		c0.008,0.083,0.079,0.147,0.16,0.147c0.063-0.005,0.103-0.026,0.13-0.06c0.027-0.033,0.04-0.075,0.035-0.118l-0.015-0.142
		l0.793-0.081l0.014,0.141c0.008,0.083,0.08,0.148,0.163,0.148c0.06-0.005,0.1-0.026,0.128-0.061
		c0.028-0.034,0.041-0.076,0.036-0.119l-0.014-0.142l0.792-0.079l0.014,0.142c0.008,0.083,0.079,0.147,0.161,0.147
		c0.062-0.005,0.101-0.026,0.129-0.061c0.028-0.034,0.041-0.076,0.036-0.119l-0.014-0.142l0.792-0.08l0.015,0.141
		c0.009,0.085,0.078,0.149,0.162,0.149c0.061-0.005,0.101-0.027,0.129-0.062c0.027-0.034,0.04-0.075,0.035-0.118l-0.015-0.142
		l0.792-0.079l0.015,0.14c0.009,0.085,0.079,0.149,0.162,0.149c0.107-0.01,0.173-0.091,0.164-0.181l-0.014-0.141l0.793-0.08
		l0.014,0.142c0.008,0.083,0.079,0.148,0.162,0.148c0.061-0.005,0.101-0.027,0.128-0.061c0.027-0.034,0.04-0.076,0.036-0.118
		l-0.014-0.142l0.791-0.08l0.015,0.141c0.008,0.084,0.079,0.148,0.163,0.148c0.061-0.005,0.1-0.026,0.128-0.06
		c0.028-0.034,0.041-0.077,0.036-0.121l-0.014-0.142l0.791-0.077l0.015,0.14c0.009,0.084,0.079,0.148,0.164,0.148
		c0.06-0.005,0.099-0.026,0.126-0.06c0.028-0.034,0.041-0.076,0.036-0.12l-0.015-0.142l0.792-0.08l0.015,0.14
		c0.009,0.085,0.079,0.149,0.164,0.149c0.06-0.005,0.1-0.027,0.127-0.061c0.027-0.034,0.04-0.075,0.035-0.118l-0.015-0.142
		l0.792-0.08l0.015,0.14c0.009,0.085,0.08,0.149,0.164,0.149c0.061-0.005,0.1-0.026,0.128-0.061c0.028-0.034,0.041-0.077,0.036-0.12
		l-0.014-0.141l0.789-0.079l0.015,0.14c0.009,0.084,0.079,0.148,0.162,0.148c0.063-0.005,0.103-0.027,0.131-0.061
		c0.027-0.033,0.039-0.075,0.034-0.117l-0.015-0.142l0.794-0.082l0.014,0.142c0.008,0.084,0.078,0.148,0.163,0.148
		c0.06-0.005,0.099-0.027,0.127-0.061c0.027-0.034,0.04-0.076,0.035-0.119L15.7,22.331l0.793-0.08l0.015,0.141
		c0.008,0.083,0.079,0.148,0.161,0.148c0.108-0.011,0.175-0.091,0.166-0.181l-0.014-0.142l0.792-0.077l0.014,0.141
		c0.008,0.083,0.079,0.148,0.162,0.148c0.108-0.01,0.172-0.09,0.164-0.182l-0.013-0.141l0.997-0.1l0.042,0.43l0.782,7.83
		l-0.141,0.014L1.333,32.113z M0.844,24.363l0.743,7.442l17.86-1.781l-0.768-7.694l-0.456,0.045
		c-0.042,0.183-0.196,0.328-0.392,0.348l-0.045,0.002c-0.181,0-0.338-0.107-0.408-0.265l-0.273,0.026
		c-0.042,0.181-0.195,0.326-0.391,0.347l-0.048,0.002c-0.18,0-0.336-0.107-0.407-0.265l-0.273,0.027
		c-0.015,0.066-0.044,0.129-0.089,0.184c-0.075,0.093-0.183,0.151-0.303,0.164l-0.044,0.002c-0.182,0-0.338-0.107-0.408-0.264
		l-0.273,0.028c-0.015,0.065-0.044,0.127-0.088,0.181c-0.076,0.094-0.184,0.152-0.304,0.164l-0.047,0.002
		c-0.18,0-0.336-0.107-0.407-0.264l-0.271,0.027c-0.015,0.067-0.046,0.13-0.091,0.185c-0.076,0.093-0.183,0.15-0.302,0.162
		l-0.045,0.002c-0.18,0-0.337-0.107-0.408-0.265l-0.274,0.027c-0.015,0.066-0.044,0.128-0.088,0.182
		c-0.076,0.094-0.183,0.152-0.303,0.164l-0.044,0.002c-0.181,0-0.338-0.107-0.409-0.265l-0.272,0.027
		c-0.015,0.067-0.045,0.13-0.09,0.185c-0.076,0.093-0.183,0.151-0.302,0.162l-0.043,0.002c-0.181,0-0.339-0.107-0.409-0.264
		L10.4,23.152c-0.015,0.067-0.046,0.13-0.09,0.185c-0.076,0.092-0.183,0.15-0.303,0.162l-0.045,0.002
		c-0.181,0-0.338-0.107-0.408-0.265l-0.273,0.027c-0.015,0.066-0.045,0.128-0.089,0.183c-0.076,0.093-0.184,0.151-0.304,0.164
		l-0.044,0.002c-0.181,0-0.338-0.107-0.408-0.265l-0.273,0.028c-0.042,0.182-0.196,0.327-0.392,0.347l-0.045,0.002
		c-0.18,0-0.336-0.107-0.407-0.265l-0.273,0.027c-0.015,0.065-0.044,0.127-0.088,0.182c-0.076,0.094-0.184,0.152-0.304,0.165
		l-0.045,0.002c-0.181,0-0.337-0.107-0.408-0.266l-0.273,0.028c-0.015,0.066-0.045,0.129-0.09,0.184
		c-0.076,0.092-0.183,0.15-0.302,0.162L5.49,23.945c-0.181,0-0.337-0.107-0.407-0.265l-0.272,0.027
		c-0.015,0.066-0.046,0.129-0.091,0.184c-0.076,0.092-0.183,0.149-0.301,0.162l-0.046,0.002c-0.181,0-0.338-0.107-0.408-0.265
		l-0.273,0.028c-0.015,0.066-0.045,0.129-0.089,0.184c-0.076,0.093-0.185,0.15-0.304,0.162l-0.046,0.002
		c-0.18,0-0.335-0.107-0.405-0.264l-0.273,0.027c-0.015,0.066-0.045,0.129-0.089,0.183c-0.076,0.094-0.183,0.152-0.302,0.164
		L2.14,24.278c-0.183,0-0.34-0.107-0.41-0.264L1.457,24.04c-0.049,0.189-0.203,0.333-0.399,0.353l-0.046,0.002
		C0.952,24.396,0.896,24.384,0.844,24.363z"/>
	<polygon fill="#ec008c" points="19.474,22.118 20.335,30.748 0.86,32.689 0,24.048 1.329,23.917 2.058,31.229 18.873,29.553
		18.144,22.249 	"/>
	
		<line fill="none" stroke="#111111" stroke-width="1.9843" stroke-miterlimit="22.9256" x1="14.793" y1="26.684" x2="4.906" y2="27.67"/>
</g>
</svg>
